<svg xmlns="http://www.w3.org/2000/svg" width="16" height="16" viewBox="0 0 4.233 4.233"><path d="M76.914 70.427c0 11.004-8.92 19.924-19.923 19.924-11.004 0-19.924-8.92-19.924-19.924 0-11.003 8.92-19.923 19.924-19.923 11.003 0 19.923 8.92 19.923 19.923zM91.207 84.2c-10.996.408-19.58 9.652-19.173 20.648.408 10.996 9.652 19.58 20.648 19.172 10.996-.407 19.58-9.652 19.172-20.648-.407-10.995-9.651-19.58-20.647-19.172z" style="fill:#818181;fill-opacity:1;stroke:#bcbcbc;stroke-width:1.3;stroke-linejoin:bevel;stroke-dasharray:none;stroke-opacity:1" transform="translate(-1.98 -2.684) scale(.05501)"/><path d="M37.54 51.882q-.057 0-.057-.054v-.567q-.08-.134-.146-.257-.066-.125-.12-.248-.055-.125-.102-.25-.045-.125-.083-.26h.215q.035 0 .045.017.012.014.021.047.021.075.052.163.03.087.066.184.038.094.083.196.045.099.099.198.054-.101.104-.215.052-.115.092-.224.042-.111.073-.205.03-.097.042-.161h.185q.033 0 .047.024.014.02.002.054-.042.134-.087.253-.045.118-.097.23-.052.112-.113.223-.06.11-.13.231v.621z" aria-label="Y" style="font-size:2.36064px;line-height:1.25;font-family:&quot;HP Simplified&quot;;-inkscape-font-specification:&quot;HP Simplified, Normal&quot;;font-variant-ligatures:none;letter-spacing:0;word-spacing:0;fill:#d2ae27;stroke-width:.029508" transform="translate(-36.417 -49.854)"/><path d="M95.764 102.658h-26.58l13.29-23.02z" style="fill:none;fill-opacity:1;stroke:#7ade84;stroke-width:3.02815;stroke-linejoin:bevel;stroke-dasharray:none;stroke-opacity:1" transform="matrix(.056 0 0 .056 -1.556 -2.253)"/><path d="m37.937 121.971 75.184-73.659" style="fill:none;stroke:#fff;stroke-width:3.89379584;stroke-linecap:round;stroke-linejoin:bevel;stroke-dasharray:none;stroke-opacity:1" transform="matrix(.02598 0 0 .02539 .159 -.036)"/></svg>